<?xml version="1.0" encoding="UTF-8"?>
<svg id="Ebene_1" data-name="Ebene 1" xmlns="http://www.w3.org/2000/svg" viewBox="0 0 245.37 63.78">
  <path d="m54.73,5.25c-3.39-2.23-7.22-3.84-11.34-4.65l2.68,11.96c.31.14.61.29.9.44l7.76-7.76h0Z" fill="#1c85c8"/>
  <path d="m55.78,5.98c-.35-.25-.7-.49-1.05-.73l-7.76,7.76c.81.42,1.59.89,2.33,1.41l9.16,2.29-2.68-10.73h0Z" fill="#225ca8"/>
  <path d="m55.78,5.98l2.68,10.73,3.42-5.01c-1.77-2.16-3.83-4.09-6.1-5.72h0Z" fill="#5dc5ea"/>
  <path d="m41.79,63.45s.06,0,.09-.01l4.37-12.3c-1.1.52-2.26.94-3.45,1.27l-1,11.04h0Zm16.67-46.74l-9.16-2.29c3,2.08,5.44,4.92,7.05,8.23l2.11-5.94h0Z" fill="#5dc5ea"/>
  <path d="m61.89,11.7l-3.42,5.01,9.58,7.07c-1.18-4.49-3.31-8.59-6.16-12.07h0Z" fill="#183b6a"/>
  <path d="m58.46,16.7l9.42,23.89c.78-2.77,1.21-5.69,1.21-8.7s-.39-5.65-1.1-8.29l-9.53-6.89h0Z" fill="#1c85c8"/>
  <path d="m67.88,40.59l-9.42-23.89-2.11,5.94c1.35,2.79,2.11,5.93,2.11,9.24,0,8.51-5,15.84-12.22,19.24l-4.37,12.3c12.49-1.84,22.62-10.92,26-22.84h0Z" fill="#183b6a"/>
  <path d="m41.49,63.49c.1-.01.2-.02.3-.04l1-11.04c-1.78.48-3.65.75-5.59.75h-5.34l9.62,10.34h0Z" fill="#1c85c8"/>
  <path d="m37.2,63.78c1.45,0,2.88-.11,4.28-.29l-9.61-10.34h-3.7l1.96,10.63h7.07Z" fill="#611a26"/>
  <polygon points="9.69 63.78 30.13 63.78 28.18 53.15 21.66 53.15 9.69 63.78 9.69 63.78" fill="#b41922"/>
  <path d="m21.67,47.83l-12.5-.79c.14.26.27.53.42.79h12.08Zm.06,5.31H0v10.63h9.82l11.91-10.63h0Z" fill="#e63026"/>
  <path d="m16.33,35.91l-10.15-11.42c-.56,2.37-.87,4.85-.87,7.4,0,5.81,1.56,11.25,4.28,15.94h13.56c-3.46-3.05-5.91-7.21-6.82-11.93h0Z" fill="#e63026"/>
  <path d="m5.36,33.16c.09,2.26.41,4.46.95,6.57l14.76,5.98c-.9-1.05-1.69-2.18-2.38-3.39l-13.33-9.16h0Z" fill="#b41922"/>
  <path d="m7.75,19.66c-.64,1.55-1.16,3.15-1.56,4.81l10.14,11.42c-.25-1.3-.38-2.63-.38-4,0-4.65,1.5-8.95,4.03-12.45l-12.22.21h0Z" fill="#961914"/>
  <path d="m21.81,17.24l-4.64-10.16c-2.64,2.14-4.94,4.69-6.78,7.56l10.24,3.94c.37-.46.77-.91,1.18-1.34h0Z" fill="#b41922"/>
  <path d="m10.39,14.64c-1.04,1.61-1.94,3.32-2.68,5.11l12.24-.28c.22-.3.45-.6.68-.89l-10.25-3.93h0Z" fill="#611a26"/>
  <path d="m35.77.04c-7.05.31-13.49,2.91-18.63,7.07l4.65,10.14c1.49-1.56,3.21-2.9,5.11-3.96L35.77.04h0Z" fill="#961914"/>
  <path d="m43.39.6c-2-.39-4.07-.6-6.18-.6-.48,0-.96.02-1.44.04l-8.89,13.27c3.06-1.7,6.58-2.68,10.33-2.68,3.17,0,6.17.7,8.86,1.94l-2.68-11.96h0Z" fill="#453153"/>
  <path d="m86.55,50.38c0,1.71.93,2.8,2.72,2.8s2.72-1.08,2.72-2.8v-4.29h-.61v4.28c0,1.41-.73,2.27-2.11,2.27s-2.11-.86-2.11-2.27v-4.28h-.61v4.29h0Zm11.08,2.67v-3.53c0-1.14-.56-1.64-1.59-1.64-.73,0-1.45.45-1.82.89v-.76h-.54v5.05h.54v-3.81c.32-.46.99-.87,1.64-.87.73,0,1.22.29,1.22,1.26v3.42h.54Zm1.88-5.9c.23,0,.42-.19.42-.42s-.19-.42-.42-.42-.42.19-.42.42.2.42.42.42h0Zm.27,5.9v-5.05h-.54v5.05h.54Zm3.72,0l2.13-5.05h-.62l-1.82,4.41-1.84-4.41h-.6l2.13,5.05h.62Zm2.61-2.53c0,1.56,1.06,2.65,2.53,2.65.84,0,1.47-.29,1.97-.81l-.28-.36c-.43.46-1.01.7-1.65.7-1.19,0-1.92-.91-1.97-2.01h4.22v-.15c0-1.45-.85-2.67-2.38-2.67-1.4,0-2.43,1.18-2.43,2.64h0Zm2.42-2.17c1.26,0,1.83,1.07,1.84,1.92h-3.67c.04-.88.64-1.92,1.83-1.92h0Zm4.26,4.7v-3.68c.23-.44.92-.9,1.43-.9.1,0,.18,0,.27.02v-.6c-.7,0-1.27.41-1.7.97v-.87h-.54v5.05h.54Zm2.41-.67c.5.55,1.13.79,1.94.79,1.26,0,1.89-.67,1.89-1.48,0-1.08-.97-1.32-1.84-1.54-.7-.18-1.35-.33-1.35-.91,0-.52.48-.91,1.26-.91.67,0,1.21.27,1.5.67l.3-.39c-.37-.41-.94-.74-1.81-.74-1.14,0-1.8.63-1.8,1.4,0,.98.93,1.2,1.78,1.41.72.19,1.41.38,1.41,1.02,0,.58-.5,1-1.35,1-.71,0-1.31-.33-1.63-.74l-.32.41h0Zm5.4-5.23c.23,0,.42-.19.42-.42s-.19-.42-.42-.42-.42.19-.42.42.2.42.42.42h0Zm.27,5.9v-5.05h-.54v5.05h.54Zm2.82.13c.42,0,.66-.13.86-.31l-.21-.42c-.11.13-.32.24-.56.24-.36,0-.52-.28-.52-.69v-3.51h1.02v-.48h-1.02v-1.38h-.55v1.38h-.84v.48h.84v3.59c0,.69.32,1.1.99,1.1h0Zm1.75,1.85c.14.04.37.07.53.07.6,0,1.02-.3,1.29-.94l2.61-6.15h-.62l-1.82,4.41-1.84-4.41h-.61l2.13,5.09-.4.9c-.2.48-.43.62-.76.62-.12,0-.32-.03-.44-.08l-.09.5h0Zm10.2-1.85c1.49,0,2.43-1.18,2.43-2.65s-.94-2.64-2.43-2.64-2.42,1.17-2.42,2.64.95,2.65,2.42,2.65h0Zm0-.49c-1.17,0-1.84-1.03-1.84-2.16s.67-2.15,1.84-2.15,1.85,1.03,1.85,2.15-.66,2.16-1.85,2.16h0Zm5.45-4.2v-.48h-1.02v-.46c0-.7.3-1.1.88-1.1.19,0,.33.04.46.11l.17-.43c-.2-.11-.43-.16-.68-.16-.84,0-1.37.57-1.37,1.57v.46h-.83v.48h.83v4.57h.54v-4.57h1.02Zm9.49,4.57l-2.85-6.97h-.74l-2.85,6.97h.67l.7-1.71h3.71l.7,1.71h.67Zm-1.56-2.26h-3.33l1.66-4.13,1.67,4.13h0Zm3.16,1.44c.41.57,1.04.94,1.75.94,1.35,0,2.26-1.04,2.26-2.65s-.91-2.64-2.26-2.64c-.75,0-1.4.41-1.75.92v-.79h-.54v6.97h.54v-2.74h0Zm3.43-1.71c0,1.22-.64,2.16-1.76,2.16-.7,0-1.37-.44-1.66-.92v-2.5c.29-.48.96-.9,1.66-.9,1.13,0,1.76.93,1.76,2.15h0Zm2.49,1.71c.41.57,1.04.94,1.75.94,1.35,0,2.26-1.04,2.26-2.65s-.91-2.64-2.26-2.64c-.75,0-1.4.41-1.75.92v-.79h-.54v6.97h.54v-2.74h0Zm3.43-1.71c0,1.22-.64,2.16-1.76,2.16-.7,0-1.37-.44-1.66-.92v-2.5c.29-.48.96-.9,1.66-.9,1.13,0,1.76.93,1.76,2.15h0Zm2.5,2.53v-6.97h-.54v6.97h.54Zm1.88-5.9c.23,0,.42-.19.42-.42s-.19-.42-.42-.42-.42.19-.42.42.2.42.42.42h0Zm.27,5.9v-5.05h-.54v5.05h.54Zm1.31-2.53c0,1.56,1.06,2.65,2.53,2.65.84,0,1.47-.29,1.97-.81l-.28-.36c-.43.46-1.01.7-1.65.7-1.19,0-1.92-.91-1.97-2.01h4.22v-.15c0-1.45-.85-2.67-2.38-2.67-1.4,0-2.43,1.18-2.43,2.64h0Zm2.42-2.17c1.26,0,1.83,1.07,1.84,1.92h-3.67c.04-.88.64-1.92,1.83-1.92h0Zm8.04,4.7v-6.97h-.55v2.74c-.41-.57-1.03-.94-1.76-.94-1.34,0-2.26,1.06-2.26,2.65s.92,2.64,2.26,2.64c.75,0,1.4-.41,1.76-.93v.8h.55Zm-.55-1.26c-.29.48-.95.9-1.66.9-1.12,0-1.77-.93-1.77-2.15s.65-2.16,1.77-2.16c.71,0,1.37.43,1.66.92v2.5h0Zm4.59.28c.53.65,1.4,1.11,2.55,1.11,1.88,0,2.48-1.08,2.48-1.97,0-1.41-1.23-1.77-2.36-2.09-.95-.25-1.82-.49-1.82-1.32,0-.75.7-1.28,1.63-1.28.78,0,1.49.27,2,.88l.4-.44c-.54-.62-1.32-.98-2.36-.98-1.26,0-2.29.72-2.29,1.86,0,1.28,1.17,1.6,2.27,1.9.98.26,1.91.53,1.91,1.51,0,.6-.41,1.39-1.84,1.39-.99,0-1.72-.49-2.17-1.01l-.39.45h0Zm6.12-1.55c0,1.47.97,2.65,2.46,2.65.88,0,1.38-.34,1.79-.87l-.38-.33c-.37.5-.82.71-1.38.71-1.18,0-1.9-.95-1.9-2.16s.72-2.15,1.9-2.15c.55,0,1.01.2,1.38.7l.38-.33c-.41-.51-.91-.86-1.79-.86-1.48,0-2.46,1.17-2.46,2.64h0Zm5.64-3.37c.23,0,.42-.19.42-.42s-.19-.42-.42-.42-.42.19-.42.42.2.42.42.42h0Zm.27,5.9v-5.05h-.54v5.05h.54Zm1.31-2.53c0,1.56,1.06,2.65,2.53,2.65.83,0,1.47-.29,1.97-.81l-.28-.36c-.43.46-1.01.7-1.65.7-1.19,0-1.92-.91-1.98-2.01h4.22v-.15c0-1.45-.85-2.67-2.38-2.67-1.4,0-2.43,1.18-2.43,2.64h0Zm2.42-2.17c1.26,0,1.83,1.07,1.84,1.92h-3.67c.04-.88.64-1.92,1.83-1.92h0Zm7.67,4.7v-3.53c0-1.14-.56-1.64-1.59-1.64-.73,0-1.45.45-1.82.89v-.76h-.54v5.05h.54v-3.81c.32-.46.99-.87,1.64-.87.73,0,1.22.29,1.22,1.26v3.42h.54Zm1.33-2.53c0,1.47.97,2.65,2.45,2.65.88,0,1.38-.34,1.79-.87l-.38-.33c-.37.5-.83.71-1.38.71-1.18,0-1.9-.95-1.9-2.16s.72-2.15,1.9-2.15c.55,0,1.01.2,1.38.7l.38-.33c-.41-.51-.91-.86-1.79-.86-1.48,0-2.45,1.17-2.45,2.64h0Zm4.99,0c0,1.56,1.05,2.65,2.53,2.65.83,0,1.47-.29,1.97-.81l-.28-.36c-.43.46-1.01.7-1.65.7-1.19,0-1.92-.91-1.97-2.01h4.22v-.15c0-1.45-.85-2.67-2.38-2.67-1.4,0-2.43,1.18-2.43,2.64h0Zm2.42-2.17c1.26,0,1.83,1.07,1.84,1.92h-3.67c.04-.88.64-1.92,1.83-1.92h0Zm3.28,4.03c.5.55,1.13.79,1.94.79,1.26,0,1.89-.67,1.89-1.48,0-1.08-.97-1.32-1.84-1.54-.7-.18-1.35-.33-1.35-.91,0-.52.48-.91,1.26-.91.67,0,1.21.27,1.5.67l.3-.39c-.37-.41-.94-.74-1.81-.74-1.14,0-1.8.63-1.8,1.4,0,.98.93,1.2,1.78,1.41.72.19,1.41.38,1.41,1.02,0,.58-.5,1-1.35,1-.71,0-1.31-.33-1.63-.74l-.32.41h0Z" fill="#1d1d1b"/>
  <path d="m96.08,39.48v-11.43h-1.42v4.92h-6.69v-4.92h-1.42v11.43h1.42v-5.25h6.69v5.25h1.42Zm6.22.21c2.52,0,4.1-1.95,4.1-4.35s-1.58-4.34-4.1-4.34-4.1,1.94-4.1,4.34,1.58,4.35,4.1,4.35h0Zm0-1.15c-1.77,0-2.76-1.51-2.76-3.21s.99-3.19,2.76-3.19,2.74,1.51,2.74,3.19-.98,3.21-2.74,3.21h0Zm5.6-3.21c0,2.47,1.66,4.35,4.13,4.35,1.51,0,2.4-.62,3.03-1.44l-.86-.79c-.55.74-1.25,1.08-2.11,1.08-1.77,0-2.86-1.37-2.86-3.21s1.1-3.19,2.86-3.19c.86,0,1.56.33,2.11,1.08l.86-.79c-.63-.82-1.53-1.44-3.03-1.44-2.47,0-4.13,1.89-4.13,4.34h0Zm15.69,4.15v-5.85c0-1.8-.91-2.64-2.64-2.64-1.25,0-2.38.72-2.97,1.41v-4.35h-1.29v11.43h1.29v-6.05c.5-.67,1.46-1.29,2.45-1.29,1.11,0,1.87.43,1.87,1.89v5.45h1.29Zm1.73-1.1c.84.89,1.99,1.3,3.34,1.3,2.14,0,3.26-1.11,3.26-2.5,0-1.83-1.66-2.25-3.1-2.57-1.08-.26-2.02-.51-2.02-1.32,0-.74.7-1.25,1.83-1.25,1.06,0,1.97.45,2.47,1.05l.6-.89c-.67-.67-1.66-1.2-3.07-1.2-1.97,0-3.09,1.1-3.09,2.38,0,1.71,1.59,2.09,3,2.42,1.11.27,2.13.57,2.13,1.47,0,.81-.69,1.37-1.95,1.37-1.13,0-2.18-.55-2.73-1.18l-.67.93h0Zm8.03-3.05c0,2.47,1.66,4.35,4.13,4.35,1.51,0,2.4-.62,3.03-1.44l-.86-.79c-.55.74-1.25,1.08-2.11,1.08-1.77,0-2.86-1.37-2.86-3.21s1.1-3.19,2.86-3.19c.86,0,1.56.33,2.11,1.08l.86-.79c-.63-.82-1.53-1.44-3.03-1.44-2.47,0-4.13,1.89-4.13,4.34h0Zm15.69,4.15v-5.85c0-1.8-.91-2.64-2.64-2.64-1.25,0-2.38.72-2.96,1.41v-4.35h-1.29v11.43h1.29v-6.05c.5-.67,1.46-1.29,2.45-1.29,1.11,0,1.87.43,1.87,1.89v5.45h1.29Zm9.27,0v-8.28h-1.29v6.09c-.48.67-1.44,1.25-2.45,1.25-1.11,0-1.85-.43-1.85-1.89v-5.45h-1.29v5.85c0,1.8.91,2.64,2.64,2.64,1.23,0,2.31-.65,2.95-1.37v1.17h1.29Zm3.72,0v-11.43h-1.29v11.43h1.29Zm1.97-4.15c0,2.59,1.77,4.35,4.22,4.35,1.35,0,2.47-.45,3.29-1.27l-.62-.84c-.65.67-1.61,1.05-2.55,1.05-1.78,0-2.88-1.3-2.98-2.86h6.7v-.33c0-2.49-1.48-4.44-3.98-4.44-2.37,0-4.08,1.94-4.08,4.34h0Zm4.06-3.27c1.89,0,2.71,1.53,2.73,2.76h-5.43c.07-1.27.94-2.76,2.71-2.76h0Zm18.39,7.42v-1.27h-6.55l6.43-8.98v-1.18h-8.25v1.27h6.43l-6.43,8.98v1.18h8.37Zm10.02,0l2.64-8.28h-1.34l-2.02,6.6-2.18-6.6h-1.1l-2.18,6.6-2.02-6.6h-1.34l2.64,8.28h1.29l2.16-6.65,2.16,6.65h1.29Zm4.73-9.67c.48,0,.87-.39.87-.87s-.39-.86-.87-.86-.86.38-.86.86.39.87.86.87h0Zm.65,9.67v-8.28h-1.29v8.28h1.29Zm1.91-4.15c0,2.47,1.66,4.35,4.13,4.35,1.51,0,2.4-.62,3.03-1.44l-.86-.79c-.55.74-1.25,1.08-2.11,1.08-1.76,0-2.86-1.37-2.86-3.21s1.1-3.19,2.86-3.19c.86,0,1.56.33,2.11,1.08l.86-.79c-.63-.82-1.53-1.44-3.03-1.44-2.47,0-4.13,1.89-4.13,4.34h0Zm16.08,4.15l-3.69-4.53,3.67-3.75h-1.63l-4.35,4.41v-7.56h-1.29v11.43h1.29v-2.37l1.37-1.35,2.98,3.72h1.65Zm7.66,0v-5.69c0-2.01-1.46-2.79-3.21-2.79-1.35,0-2.42.45-3.31,1.37l.6.89c.74-.79,1.54-1.15,2.54-1.15,1.2,0,2.09.63,2.09,1.75v1.49c-.67-.77-1.61-1.13-2.74-1.13-1.41,0-2.9.87-2.9,2.73s1.49,2.74,2.9,2.74c1.11,0,2.06-.39,2.74-1.15v.94h1.29Zm-1.29-1.75c-.5.69-1.37,1.03-2.28,1.03-1.2,0-2.04-.75-2.04-1.8s.84-1.82,2.04-1.82c.91,0,1.78.34,2.28,1.03v1.56h0Zm10.55,1.75v-8.28h-1.29v6.09c-.48.67-1.44,1.25-2.45,1.25-1.12,0-1.85-.43-1.85-1.89v-5.45h-1.28v5.85c0,1.8.91,2.64,2.64,2.64,1.23,0,2.31-.65,2.95-1.37v1.17h1.29Z" fill="#1d1d1b"/>
  <path d="m97.65,22.07l3.26-11.43h-2.74l-1.99,8.26-2.16-8.26h-1.9l-2.18,8.26-2.01-8.26h-2.73l3.27,11.43h2.59l1.99-7.85,2.01,7.85h2.59Zm14.62,0v-11.43h-2.45v4.49h-5.4v-4.49h-2.43v11.43h2.43v-4.8h5.4v4.8h2.45Zm10.53,0v-2.14h-5.52l5.4-7.34v-1.95h-8.59v2.14h5.4l-5.4,7.32v1.97h8.71Zm16.55,0l3.26-11.43h-1.58l-2.52,9.53-2.62-9.53h-1.18l-2.62,9.53-2.54-9.53h-1.58l3.26,11.43h1.54l2.52-9.22,2.52,9.22h1.54Zm3.76-4.15c0,2.59,1.77,4.35,4.22,4.35,1.35,0,2.47-.45,3.29-1.27l-.62-.84c-.65.67-1.61,1.05-2.55,1.05-1.78,0-2.88-1.3-2.98-2.86h6.7v-.33c0-2.49-1.47-4.44-3.98-4.44-2.37,0-4.08,1.94-4.08,4.34h0Zm4.06-3.27c1.89,0,2.71,1.53,2.73,2.76h-5.43c.07-1.27.94-2.76,2.71-2.76h0Zm5.19,6.33c.84.89,1.99,1.3,3.34,1.3,2.14,0,3.26-1.11,3.26-2.5,0-1.83-1.66-2.25-3.1-2.57-1.08-.26-2.02-.51-2.02-1.32,0-.74.7-1.25,1.83-1.25,1.06,0,1.97.45,2.47,1.05l.6-.89c-.67-.67-1.66-1.2-3.07-1.2-1.97,0-3.09,1.1-3.09,2.38,0,1.71,1.6,2.09,3,2.42,1.12.27,2.13.57,2.13,1.47,0,.81-.69,1.37-1.95,1.37-1.13,0-2.18-.55-2.73-1.18l-.67.93h0Zm10.88,1.3c.75,0,1.22-.22,1.54-.53l-.38-.96c-.17.19-.51.34-.87.34-.57,0-.84-.45-.84-1.06v-5.14h1.68v-1.13h-1.68v-2.26h-1.29v2.26h-1.37v1.13h1.37v5.42c0,1.23.62,1.94,1.83,1.94h0Zm2.47-1.3c.84.89,1.99,1.3,3.34,1.3,2.14,0,3.26-1.11,3.26-2.5,0-1.83-1.66-2.25-3.1-2.57-1.08-.26-2.02-.51-2.02-1.32,0-.74.7-1.25,1.83-1.25,1.06,0,1.97.45,2.47,1.05l.6-.89c-.67-.67-1.66-1.2-3.07-1.2-1.97,0-3.08,1.1-3.08,2.38,0,1.71,1.59,2.09,3,2.42,1.11.27,2.12.57,2.12,1.47,0,.81-.68,1.37-1.95,1.37-1.13,0-2.18-.55-2.73-1.18l-.67.93h0Zm10.07-8.61c.45,0,.79-.36.79-.81s-.34-.79-.79-.79-.79.36-.79.79.36.81.79.81h0Zm3.55,0c.43,0,.79-.36.79-.81s-.36-.79-.79-.79-.81.36-.81.79.36.81.81.81h0Zm1.41,9.7v-5.69c0-2.01-1.46-2.79-3.21-2.79-1.35,0-2.42.45-3.31,1.37l.6.89c.74-.79,1.54-1.15,2.54-1.15,1.2,0,2.09.63,2.09,1.75v1.49c-.67-.77-1.61-1.13-2.74-1.13-1.41,0-2.9.87-2.9,2.73s1.49,2.74,2.9,2.74c1.11,0,2.06-.39,2.74-1.15v.94h1.29Zm-1.29-1.75c-.5.69-1.37,1.03-2.28,1.03-1.2,0-2.04-.75-2.04-1.8s.84-1.82,2.04-1.82c.91,0,1.78.34,2.28,1.03v1.56h0Zm3.23-2.4c0,2.47,1.66,4.35,4.13,4.35,1.51,0,2.4-.62,3.03-1.44l-.86-.79c-.55.74-1.25,1.08-2.11,1.08-1.76,0-2.86-1.37-2.86-3.21s1.1-3.19,2.86-3.19c.86,0,1.56.33,2.11,1.08l.86-.79c-.63-.82-1.53-1.44-3.03-1.44-2.47,0-4.13,1.89-4.13,4.34h0Zm15.69,4.15v-5.85c0-1.8-.91-2.64-2.64-2.64-1.25,0-2.38.72-2.97,1.41v-4.35h-1.29v11.43h1.29v-6.05c.5-.67,1.46-1.29,2.45-1.29,1.11,0,1.87.43,1.87,1.89v5.45h1.29Zm1.73-1.1c.84.89,1.99,1.3,3.34,1.3,2.14,0,3.26-1.11,3.26-2.5,0-1.83-1.66-2.25-3.1-2.57-1.08-.26-2.02-.51-2.02-1.32,0-.74.7-1.25,1.83-1.25,1.06,0,1.97.45,2.47,1.05l.6-.89c-.67-.67-1.66-1.2-3.07-1.2-1.97,0-3.09,1.1-3.09,2.38,0,1.71,1.59,2.09,3,2.42,1.11.27,2.13.57,2.13,1.47,0,.81-.69,1.37-1.95,1.37-1.13,0-2.18-.55-2.73-1.18l-.67.93h0Zm9.15-8.57c.48,0,.88-.39.88-.87s-.4-.86-.88-.86-.86.38-.86.86.39.87.86.87h0Zm.65,9.67v-8.28h-1.29v8.28h1.29Zm1.75-1.1c.84.89,1.99,1.3,3.34,1.3,2.14,0,3.26-1.11,3.26-2.5,0-1.83-1.66-2.25-3.1-2.57-1.08-.26-2.02-.51-2.02-1.32,0-.74.7-1.25,1.83-1.25,1.06,0,1.97.45,2.47,1.05l.6-.89c-.67-.67-1.66-1.2-3.07-1.2-1.97,0-3.09,1.1-3.09,2.38,0,1.71,1.6,2.09,3,2.42,1.12.27,2.13.57,2.13,1.47,0,.81-.69,1.37-1.95,1.37-1.13,0-2.18-.55-2.73-1.18l-.67.93h0Zm8.03-3.05c0,2.47,1.66,4.35,4.13,4.35,1.51,0,2.4-.62,3.03-1.44l-.86-.79c-.55.74-1.25,1.08-2.11,1.08-1.76,0-2.86-1.37-2.86-3.21s1.1-3.19,2.86-3.19c.86,0,1.56.33,2.11,1.08l.86-.79c-.63-.82-1.53-1.44-3.03-1.44-2.47,0-4.13,1.89-4.13,4.34h0Zm15.69,4.15v-5.85c0-1.8-.91-2.64-2.64-2.64-1.25,0-2.38.72-2.97,1.41v-4.35h-1.29v11.43h1.29v-6.05c.5-.67,1.46-1.29,2.45-1.29,1.11,0,1.87.43,1.87,1.89v5.45h1.29Zm1.94-4.15c0,2.59,1.77,4.35,4.22,4.35,1.35,0,2.47-.45,3.29-1.27l-.62-.84c-.65.67-1.61,1.05-2.55,1.05-1.78,0-2.88-1.3-2.98-2.86h6.7v-.33c0-2.49-1.48-4.44-3.98-4.44-2.36,0-4.08,1.94-4.08,4.34h0Zm4.06-3.27c1.89,0,2.71,1.53,2.73,2.76h-5.43c.07-1.27.94-2.76,2.71-2.76h0Z" fill="#1d1d1b"/>
</svg>